<?xml version="1.0" encoding="utf-8"?>
<!-- Generator: Adobe Illustrator 22.1.0, SVG Export Plug-In . SVG Version: 6.00 Build 0)  -->
<svg version="1.1" id="Capa_2" xmlns="http://www.w3.org/2000/svg" xmlns:xlink="http://www.w3.org/1999/xlink" x="0px" y="0px"
	 viewBox="0 0 300 200" style="enable-background:new 0 0 300 200;" xml:space="preserve">
<style type="text/css">
	.st0{fill:#7F80FF;}
</style>
<path class="st0" d="M298.5,56.4v2.3c-4.5,0-11.7,2.5-18.1,5.6c-6.8,3.4-10.2,9-11.3,10.2c-1.1,1.1-4.5,0-4.5,0
	c-22.8-5.3-45.1,2.2-62.8,11.4c2.7,24.6,6.4,46.9,6.7,55.4c0.9,20.1-0.2,42.4-2.7,57c-2,1.4-3.5,0-3.5,0s1.5-15.9-4.2-18.4
	c0,0-4.8-0.4-4.8-2.3c0-1.4,6-5.4,6.7-14.7c0.5-7.9,0.3-44.2-3.7-74.2c-6.3,3.6-11.9,7.3-16.5,10.5c-1.3,0.9-2.7,2-4.1,3.1
	c1.5,7.7,2.5,15,2.5,21.8c-0.1,15.1-2.6,36.9-15.8,47.4c0,0-1.9-0.5-1.1-2.4c0,0,4.3-3.6,4.9-12.6c0.5-7.8-1.9-8.3-1.9-8.3
	s-2-1-0.8-2.3c1-1,7-4.3,7.7-10.2c0.6-4.7,0.5-18.3-0.7-29.1c-16.5,14.5-35.1,37.1-40.3,43.4c-3,3.7-12.4,16.9-12.4,16.9
	c-2.3,1.1-2.3-1.1-2.3-1.1c1.7-3.3,2.3-6.8,2.3-6.8c1.1-9,0.4-17.1-7.9-38.4c-7.9-20.3-30.5-36.1-30.5-36.1
	c5.6-1.1,21.4,1.1,21.4,1.1c13.5,12.4,20.2,51.7,20.3,64.3c0,5.6,2.3,4.5,2.3,4.5s19.2-29.7,46.1-54.7C166,80.2,160,54.1,160,32.9
	c0,0,0.2-0.8,1.2-1.2c1.3-0.5,2.4,0.1,2.4,0.1s1.8,23.5,5.8,41.4c1.7,7.5,3.5,15,5.1,22.4c6.6-5.8,13.6-11.2,20.9-15.8
	c-2.1-20.7-1.9-69.8-0.6-78.2c1.7-1.2,3.7,0,3.7,0s0.1,30,0.6,46.1c0.3,9.3,1,19.1,2,28.7C243.7,52.5,298.5,56.4,298.5,56.4z
	 M259,87.4c-1.6,0-2.8,1.5-2.8,3.4s1.3,3.4,2.8,3.4c1.6,0,2.8-1.5,2.8-3.4S260.6,87.4,259,87.4z M85.8,133.7
	c-12.4,1.1-19.2,18.1-19.2,18.1s-4.5,14.7-24.8,15.8s-31.6-20.3-31.6-20.3s-6.5-13.7,5.6-28.2c13.8-16.5,35-12.4,35-12.4l1.1-2.3
	C40.7,101,30.5,92,30.5,81.8c0-11.3,11.3-16.9,25.9-16.9s20.3,14.7,20.3,14.7c7.9-1.1,20.3,1.1,20.3,1.1c1.1-1.1,0-2.3,0-2.3
	C92.6,72.8,78,61.1,67.8,59.2C55.4,57,47,59,41.8,61.5c-5,2.3-14.7,7.9-15.8,21.4c-1,12.6,6.8,19.2,6.8,19.2
	c-7.9,1.1-18.9,4-25.9,14.7c-8.7,13.3-5.3,27-0.2,35.3c5.8,9.5,20.5,18.9,36.3,18.9s24.8-11.3,27.1-15.8s6.8-11.3,19.2-13.5
	c12.4-2.3,20.3,6.8,22.6,7.9c2.3,1.1,1.1-1.1,1.1-1.1C107.3,137.1,98.2,132.6,85.8,133.7z"/>
</svg>
